<svg width="209" height="108" viewBox="0 0 209 108" fill="none" xmlns="http://www.w3.org/2000/svg">
<path d="M42.6441 8.812V10.032C41.3428 10.1947 40.3668 10.5403 39.7161 11.069C39.0654 11.557 38.6181 12.35 38.3741 13.448C38.1708 14.546 38.0691 16.0913 38.0691 18.084V52.122C37.5811 52.0813 37.0728 52.061 36.5441 52.061C36.0561 52.061 35.5274 52.0813 34.9581 52.122L8.48409 18.572V41.996C8.48409 44.2327 8.60609 45.961 8.85009 47.181C9.09409 48.3603 9.62276 49.2143 10.4361 49.743C11.2901 50.231 12.6118 50.5767 14.4011 50.78V52C13.6284 51.9187 12.6118 51.878 11.3511 51.878C10.0904 51.8373 8.91109 51.817 7.81309 51.817C6.87776 51.817 5.92209 51.8373 4.94609 51.878C3.97009 51.878 3.15676 51.9187 2.50609 52V50.78C3.80743 50.5767 4.78343 50.231 5.43409 49.743C6.08476 49.255 6.51176 48.462 6.71509 47.364C6.95909 46.2253 7.08109 44.68 7.08109 42.728V15.278C7.08109 13.7733 6.95909 12.6753 6.71509 11.984C6.51176 11.252 6.06443 10.764 5.37309 10.52C4.72243 10.2353 3.76676 10.0727 2.50609 10.032V8.812C3.15676 8.85267 3.97009 8.89333 4.94609 8.934C5.92209 8.97466 6.87776 8.995 7.81309 8.995C8.78909 8.995 9.72443 8.97466 10.6191 8.934C11.5138 8.89333 12.3271 8.85267 13.0591 8.812L36.6661 37.909V18.816C36.6661 16.5793 36.5441 14.8713 36.3001 13.692C36.0561 12.472 35.5071 11.5977 34.6531 11.069C33.8398 10.5403 32.5384 10.1947 30.7491 10.032V8.812C31.5218 8.85267 32.5384 8.89333 33.7991 8.934C35.0598 8.97466 36.2391 8.995 37.3371 8.995C38.3131 8.995 39.2688 8.97466 40.2041 8.934C41.1801 8.89333 41.9934 8.85267 42.6441 8.812ZM68.1936 7.958C72.5042 7.958 76.2659 8.83233 79.4786 10.581C82.7319 12.3297 85.2532 14.851 87.0426 18.145C88.8319 21.3983 89.7266 25.3633 89.7266 30.04C89.7266 34.5947 88.8116 38.58 86.9816 41.996C85.1516 45.412 82.5896 48.0757 79.2956 49.987C76.0422 51.8983 72.3212 52.854 68.1326 52.854C63.8219 52.854 60.0399 51.9797 56.7866 50.231C53.5739 48.4823 51.0729 45.961 49.2836 42.667C47.4942 39.373 46.5996 35.408 46.5996 30.772C46.5996 26.2173 47.5146 22.232 49.3446 18.816C51.2152 15.4 53.7569 12.7363 56.9696 10.825C60.2229 8.91366 63.9642 7.958 68.1936 7.958ZM67.9496 9.056C65.6722 9.056 63.6796 9.971 61.9716 11.801C60.3042 13.631 59.0029 16.1523 58.0676 19.365C57.1729 22.5777 56.7256 26.2987 56.7256 30.528C56.7256 34.8387 57.2339 38.6003 58.2506 41.813C59.3079 44.985 60.7109 47.4453 62.4596 49.194C64.2489 50.902 66.2212 51.756 68.3766 51.756C70.6539 51.756 72.6262 50.841 74.2936 49.011C76.0016 47.181 77.3029 44.6597 78.1976 41.447C79.1329 38.1937 79.6006 34.4727 79.6006 30.284C79.6006 25.9327 79.0719 22.171 78.0146 18.999C76.9979 15.827 75.5949 13.387 73.8056 11.679C72.0569 9.93033 70.1049 9.056 67.9496 9.056ZM93.9451 8.812C95.0024 8.85267 96.3851 8.89333 98.0931 8.934C99.8011 8.97466 101.509 8.995 103.217 8.995C105.169 8.995 107.06 8.97466 108.89 8.934C110.72 8.89333 112.021 8.873 112.794 8.873C117.837 8.873 121.598 9.76767 124.079 11.557C126.6 13.3463 127.861 15.644 127.861 18.45C127.861 19.8733 127.434 21.317 126.58 22.781C125.726 24.245 124.404 25.5463 122.615 26.685C120.826 27.8237 118.508 28.6573 115.661 29.186V29.308C119.484 29.5927 122.513 30.284 124.75 31.382C126.987 32.48 128.593 33.8017 129.569 35.347C130.545 36.8923 131.033 38.4987 131.033 40.166C131.033 42.728 130.362 44.8833 129.02 46.632C127.678 48.3807 125.746 49.7227 123.225 50.658C120.704 51.5527 117.694 52 114.197 52C113.221 52 111.818 51.9797 109.988 51.939C108.158 51.8577 105.942 51.817 103.339 51.817C101.55 51.817 99.8011 51.8373 98.0931 51.878C96.3851 51.878 95.0024 51.9187 93.9451 52V50.78C95.2464 50.6987 96.2224 50.536 96.8731 50.292C97.5238 50.048 97.9508 49.56 98.1541 48.828C98.3981 48.096 98.5201 46.998 98.5201 45.534V15.278C98.5201 13.7733 98.3981 12.6753 98.1541 11.984C97.9508 11.252 97.5034 10.764 96.8121 10.52C96.1614 10.2353 95.2058 10.0727 93.9451 10.032V8.812ZM112.001 10.032C110.415 10.032 109.378 10.3777 108.89 11.069C108.443 11.7603 108.219 13.1633 108.219 15.278V45.534C108.219 46.9573 108.321 48.035 108.524 48.767C108.768 49.499 109.175 49.987 109.744 50.231C110.354 50.475 111.249 50.597 112.428 50.597C115.356 50.597 117.491 49.682 118.833 47.852C120.216 45.9813 120.907 43.338 120.907 39.922C120.907 36.7907 120.114 34.371 118.528 32.663C116.983 30.955 114.4 30.101 110.781 30.101H105.596C105.596 30.101 105.596 29.9383 105.596 29.613C105.596 29.247 105.596 29.064 105.596 29.064H110.842C112.753 29.064 114.217 28.6167 115.234 27.722C116.251 26.7867 116.962 25.5667 117.369 24.062C117.776 22.5167 117.979 20.8697 117.979 19.121C117.979 16.1117 117.511 13.8547 116.576 12.35C115.641 10.8047 114.116 10.032 112.001 10.032ZM153.966 8.812V10.032C152.583 10.0727 151.526 10.2353 150.794 10.52C150.102 10.764 149.635 11.252 149.391 11.984C149.147 12.6753 149.025 13.7733 149.025 15.278V46.266C149.025 47.5267 149.106 48.462 149.269 49.072C149.472 49.682 149.838 50.0887 150.367 50.292C150.936 50.4953 151.77 50.597 152.868 50.597H155.857C157.239 50.597 158.541 50.2717 159.761 49.621C160.981 48.9703 162.079 48.0553 163.055 46.876C164.031 45.656 164.844 44.2123 165.495 42.545C166.145 40.8777 166.633 39.0273 166.959 36.994H168.362C168.24 38.3767 168.179 40.166 168.179 42.362C168.179 43.2973 168.199 44.6597 168.24 46.449C168.28 48.2383 168.402 50.0887 168.606 52C166.532 51.9187 164.193 51.878 161.591 51.878C158.988 51.8373 156.67 51.817 154.637 51.817C153.62 51.817 152.319 51.817 150.733 51.817C149.147 51.817 147.439 51.8373 145.609 51.878C143.779 51.878 141.928 51.8983 140.058 51.939C138.187 51.939 136.418 51.9593 134.751 52V50.78C136.052 50.6987 137.028 50.536 137.679 50.292C138.329 50.048 138.756 49.56 138.96 48.828C139.204 48.096 139.326 46.998 139.326 45.534V15.278C139.326 13.7733 139.204 12.6753 138.96 11.984C138.756 11.252 138.309 10.764 137.618 10.52C136.967 10.2353 136.011 10.0727 134.751 10.032V8.812C135.767 8.85267 137.13 8.89333 138.838 8.934C140.586 8.97466 142.437 8.995 144.389 8.995C146.178 8.995 147.927 8.97466 149.635 8.934C151.383 8.89333 152.827 8.85267 153.966 8.812ZM204.677 8.812C204.514 10.6013 204.392 12.3297 204.311 13.997C204.27 15.6643 204.25 16.9453 204.25 17.84C204.25 18.6533 204.27 19.426 204.311 20.158C204.351 20.89 204.392 21.5 204.433 21.988H203.03C202.623 19.0193 201.993 16.681 201.139 14.973C200.285 13.2243 199.166 12.0043 197.784 11.313C196.442 10.581 194.856 10.215 193.026 10.215H190.525C189.345 10.215 188.451 10.3167 187.841 10.52C187.231 10.7233 186.824 11.13 186.621 11.74C186.417 12.35 186.316 13.2853 186.316 14.546V46.266C186.316 47.5267 186.417 48.462 186.621 49.072C186.824 49.682 187.231 50.0887 187.841 50.292C188.451 50.4953 189.345 50.597 190.525 50.597H193.514C195.344 50.597 196.95 50.2107 198.333 49.438C199.756 48.6247 200.956 47.2623 201.932 45.351C202.948 43.4397 203.721 40.8573 204.25 37.604H205.653C205.531 38.9053 205.47 40.6133 205.47 42.728C205.47 43.6633 205.49 44.985 205.531 46.693C205.571 48.401 205.693 50.17 205.897 52C203.823 51.9187 201.484 51.878 198.882 51.878C196.279 51.8373 193.961 51.817 191.928 51.817C190.911 51.817 189.61 51.817 188.024 51.817C186.438 51.817 184.73 51.8373 182.9 51.878C181.07 51.878 179.219 51.8983 177.349 51.939C175.478 51.939 173.709 51.9593 172.042 52V50.78C173.343 50.6987 174.319 50.536 174.97 50.292C175.62 50.048 176.047 49.56 176.251 48.828C176.495 48.096 176.617 46.998 176.617 45.534V15.278C176.617 13.7733 176.495 12.6753 176.251 11.984C176.047 11.252 175.6 10.764 174.909 10.52C174.258 10.2353 173.302 10.0727 172.042 10.032V8.812C173.709 8.85267 175.478 8.89333 177.349 8.934C179.219 8.934 181.07 8.95433 182.9 8.995C184.73 8.995 186.438 8.995 188.024 8.995C189.61 8.995 190.911 8.995 191.928 8.995C193.798 8.995 195.913 8.995 198.272 8.995C200.671 8.95433 202.806 8.89333 204.677 8.812ZM195.161 29.674C195.161 29.674 195.161 29.8773 195.161 30.284C195.161 30.6907 195.161 30.894 195.161 30.894H184.486C184.486 30.894 184.486 30.6907 184.486 30.284C184.486 29.8773 184.486 29.674 184.486 29.674H195.161ZM196.93 21.622C196.767 23.94 196.686 25.709 196.686 26.929C196.726 28.149 196.747 29.2673 196.747 30.284C196.747 31.3007 196.767 32.419 196.808 33.639C196.848 34.859 196.95 36.628 197.113 38.946H195.71C195.506 37.5227 195.12 36.201 194.551 34.981C194.022 33.761 193.249 32.785 192.233 32.053C191.216 31.2803 189.894 30.894 188.268 30.894V29.674C189.488 29.674 190.525 29.43 191.379 28.942C192.233 28.4133 192.924 27.7423 193.453 26.929C194.022 26.075 194.469 25.1803 194.795 24.245C195.12 23.3097 195.364 22.4353 195.527 21.622H196.93ZM31.6048 61.019C34.0041 61.019 35.8544 61.2833 37.1558 61.812C38.4571 62.3 39.5754 62.8287 40.5108 63.398C40.9988 63.6827 41.3851 63.9063 41.6698 64.069C41.9951 64.191 42.3001 64.252 42.5848 64.252C42.9914 64.252 43.2761 64.0283 43.4388 63.581C43.6421 63.1337 43.8048 62.4627 43.9268 61.568H45.3298C45.2891 62.3407 45.2281 63.276 45.1468 64.374C45.1061 65.4313 45.0654 66.8343 45.0248 68.583C45.0248 70.3317 45.0248 72.6293 45.0248 75.476H43.6218C43.4591 73.3613 42.9711 71.3077 42.1578 69.315C41.3444 67.3223 40.1854 65.6957 38.6808 64.435C37.2168 63.1337 35.4071 62.483 33.2518 62.483C31.2998 62.483 29.6934 63.032 28.4328 64.13C27.1721 65.228 26.5418 66.753 26.5418 68.705C26.5418 70.3317 26.9484 71.7347 27.7618 72.914C28.5751 74.0527 29.7544 75.171 31.2998 76.269C32.8858 77.367 34.7971 78.6887 37.0338 80.234C38.9858 81.4947 40.7344 82.7553 42.2798 84.016C43.8251 85.2767 45.0654 86.7 46.0008 88.286C46.9361 89.872 47.4038 91.763 47.4038 93.959C47.4038 96.643 46.6921 98.8593 45.2688 100.608C43.8861 102.357 42.0561 103.678 39.7788 104.573C37.5014 105.427 35.0004 105.854 32.2758 105.854C29.7544 105.854 27.7414 105.61 26.2368 105.122C24.7321 104.634 23.4714 104.126 22.4548 103.597C21.5601 103.028 20.8688 102.743 20.3808 102.743C19.9741 102.743 19.6691 102.967 19.4658 103.414C19.3031 103.861 19.1608 104.532 19.0388 105.427H17.6358C17.7171 104.451 17.7578 103.312 17.7578 102.011C17.7984 100.71 17.8188 99.022 17.8188 96.948C17.8594 94.8333 17.8798 92.1697 17.8798 88.957H19.2828C19.4454 91.641 19.8928 94.1623 20.6248 96.521C21.3974 98.839 22.5564 100.71 24.1018 102.133C25.6878 103.556 27.7821 104.268 30.3848 104.268C31.8081 104.268 33.0688 104.024 34.1668 103.536C35.3054 103.007 36.2204 102.235 36.9118 101.218C37.6031 100.201 37.9488 98.9407 37.9488 97.436C37.9488 95.728 37.5421 94.2437 36.7288 92.983C35.9561 91.7223 34.8784 90.543 33.4958 89.445C32.1538 88.347 30.5881 87.2287 28.7988 86.09C26.8874 84.8293 25.0981 83.5687 23.4308 82.308C21.7634 81.0473 20.4214 79.6037 19.4048 77.977C18.4288 76.3503 17.9408 74.4187 17.9408 72.182C17.9408 69.62 18.5711 67.5257 19.8318 65.899C21.1331 64.2317 22.8208 63.0117 24.8948 62.239C27.0094 61.4257 29.2461 61.019 31.6048 61.019ZM101.873 61.812C101.711 63.886 101.589 65.8787 101.507 67.79C101.467 69.7013 101.446 71.1653 101.446 72.182C101.446 73.0767 101.467 73.9307 101.507 74.744C101.548 75.5573 101.589 76.2487 101.629 76.818H100.226C99.5758 73.402 98.7421 70.6977 97.7254 68.705C96.7494 66.7123 95.5701 65.3093 94.1874 64.496C92.8048 63.642 91.1781 63.215 89.3074 63.215H87.9044V98.046C87.9044 99.6727 88.0671 100.893 88.3924 101.706C88.7584 102.519 89.4091 103.068 90.3444 103.353C91.2798 103.597 92.6421 103.739 94.4314 103.78V105C93.1708 104.959 91.4831 104.919 89.3684 104.878C87.2944 104.837 85.1188 104.817 82.8414 104.817C80.6048 104.817 78.4901 104.837 76.4974 104.878C74.5048 104.919 72.8984 104.959 71.6784 105V103.78C73.5084 103.739 74.8911 103.597 75.8264 103.353C76.7618 103.068 77.3921 102.519 77.7174 101.706C78.0428 100.893 78.2054 99.6727 78.2054 98.046V63.215H76.8634C74.9928 63.215 73.3661 63.642 71.9834 64.496C70.6008 65.3093 69.4214 66.7123 68.4454 68.705C67.4694 70.657 66.6154 73.3613 65.8834 76.818H64.4804C64.5618 76.2487 64.6024 75.5573 64.6024 74.744C64.6431 73.9307 64.6634 73.0767 64.6634 72.182C64.6634 71.1653 64.6228 69.7013 64.5414 67.79C64.5008 65.8787 64.3991 63.886 64.2364 61.812C66.1071 61.8527 68.1404 61.8933 70.3364 61.934C72.5731 61.9747 74.8098 61.995 77.0464 61.995C79.2831 61.995 81.2961 61.995 83.0854 61.995C84.9154 61.995 86.9284 61.995 89.1244 61.995C91.3611 61.995 93.5978 61.9747 95.8344 61.934C98.0711 61.8933 100.084 61.8527 101.873 61.812ZM194.35 61.751V62.971C193.456 63.337 192.541 64.069 191.605 65.167C190.67 66.2243 189.633 67.851 188.494 70.047L176.965 92.861H174.098L159.824 66.448C159.092 65.0653 158.421 64.1503 157.811 63.703C157.242 63.2557 156.734 63.032 156.286 63.032V61.751C157.384 61.873 158.503 61.9543 159.641 61.995C160.821 62.0357 162.102 62.056 163.484 62.056C165.274 62.056 167.205 62.0357 169.279 61.995C171.353 61.9137 173.244 61.8323 174.952 61.751V63.032C173.936 63.032 173.021 63.1133 172.207 63.276C171.394 63.4387 170.825 63.7437 170.499 64.191C170.174 64.5977 170.255 65.2687 170.743 66.204L180.381 84.748L178.49 87.188L184.773 74.561C186.278 71.633 187.071 69.3353 187.152 67.668C187.274 66.0007 186.868 64.8213 185.932 64.13C185.038 63.398 183.757 63.0117 182.089 62.971V61.751C183.472 61.7917 184.773 61.8323 185.993 61.873C187.213 61.9137 188.454 61.934 189.714 61.934C190.609 61.934 191.443 61.9137 192.215 61.873C193.029 61.8323 193.74 61.7917 194.35 61.751ZM181.296 83.223V98.534C181.296 99.998 181.398 101.096 181.601 101.828C181.845 102.56 182.293 103.048 182.943 103.292C183.594 103.536 184.57 103.699 185.871 103.78V105C184.773 104.919 183.35 104.878 181.601 104.878C179.893 104.837 178.185 104.817 176.477 104.817C174.566 104.817 172.756 104.837 171.048 104.878C169.34 104.878 167.998 104.919 167.022 105V103.78C168.324 103.699 169.3 103.536 169.95 103.292C170.601 103.048 171.028 102.56 171.231 101.828C171.475 101.096 171.597 99.998 171.597 98.534V86.029L176.904 89.811L181.296 83.223Z" fill="#2D2525"/>
<path d="M134.512 60.6897L150.064 100.754C150.661 102.29 151.323 103.356 152.048 103.954C152.816 104.508 153.499 104.807 154.096 104.85V106.13C152.816 106.044 151.301 106.002 149.552 106.002C147.845 105.959 146.117 105.938 144.368 105.938C142.405 105.938 140.549 105.959 138.8 106.002C137.051 106.002 135.664 105.915 134.64 106V104.85C136.816 104.764 138.181 104.402 138.736 103.762C139.333 103.079 139.205 101.65 138.352 99.4737L127.472 69.7137L128.624 68.0497L118.896 93.3937C117.957 95.7404 117.381 97.6604 117.168 99.1537C116.997 100.647 117.104 101.799 117.488 102.61C117.915 103.42 118.576 103.996 119.472 104.338C120.411 104.636 121.52 104.807 122.8 104.85V106.13C121.392 106.044 120.048 106.002 118.768 106.002C117.488 105.959 116.187 105.938 114.864 105.938C113.925 105.938 113.029 105.959 112.176 106.002C111.365 106.002 110.64 106.044 110 106.13V104.85C110.896 104.679 111.813 104.103 112.752 103.122C113.691 102.14 114.608 100.476 115.504 98.1297L130.096 60.6897C130.779 60.7324 131.504 60.7537 132.272 60.7537C133.083 60.7537 133.829 60.7324 134.512 60.6897ZM138.992 87.6977V88.9777H119.92L120.56 87.6977H138.992Z" fill="#2D2525"/>
<path d="M133.64 103.888L134.601 103.85C135.65 103.809 136.455 103.703 137.039 103.548C137.644 103.387 137.896 103.205 137.98 103.107L137.983 103.103C138.021 103.06 138.145 102.863 138.092 102.266C138.04 101.687 137.832 100.886 137.421 99.8387L137.413 99.8172L133.815 89.9774H121.278L119.829 93.7518L119.824 93.7654C118.898 96.0802 118.355 97.9155 118.158 99.2947C118.002 100.684 118.124 101.603 118.384 102.164C118.688 102.731 119.146 103.137 119.806 103.393C120.63 103.652 121.634 103.81 122.833 103.85L123.8 103.883V107.192L122.739 107.128C121.349 107.044 120.025 107.002 118.768 107.002H118.751L118.734 107.001C117.466 106.959 116.176 106.937 114.864 106.937C113.941 106.937 113.061 106.959 112.226 107.001L112.201 107.002H112.176C111.399 107.002 110.719 107.043 110.132 107.121L109 107.272V104.022L109.812 103.867C110.426 103.75 111.168 103.331 112.029 102.43C112.828 101.596 113.687 100.083 114.569 97.7733L114.572 97.7664L129.43 59.6463L130.158 59.6912C130.818 59.7324 131.522 59.7537 132.271 59.7537V60.7537L131.704 60.7498C131.144 60.7418 130.608 60.7213 130.096 60.6893L115.504 98.1297C114.608 100.476 113.691 102.141 112.752 103.122L112.401 103.471C111.585 104.241 110.784 104.7 110 104.849V106.13C110.48 106.066 111.008 106.026 111.584 106.01L112.176 106.002C113.029 105.959 113.926 105.937 114.864 105.937L115.852 105.941C116.836 105.949 117.808 105.97 118.768 106.002C120.048 106.002 121.392 105.916 122.8 106.002V104.849C121.52 104.807 120.41 104.636 119.472 104.338C118.576 103.996 117.915 103.42 117.488 102.61C117.104 101.8 116.997 100.647 117.168 99.1541C117.381 97.6608 117.957 95.74 118.896 93.3934L120.591 88.9774H134.515L138.352 99.4734C139.205 101.649 139.333 103.079 138.736 103.762C138.182 104.402 136.816 104.764 134.64 104.849V106.13C135.408 106.066 136.38 106.026 137.556 106.01L138.8 106.002C140.549 105.959 142.405 105.937 144.368 105.937L145.676 105.941C146.98 105.949 148.272 105.97 149.552 106.002C151.301 106.002 152.816 106.044 154.096 106.13V104.849C153.573 104.812 152.985 104.579 152.332 104.149L152.048 103.954C151.413 103.431 150.828 102.549 150.291 101.307L150.063 100.754L134.512 60.6893C133.829 60.7319 133.082 60.7537 132.271 60.7537V59.7537C133.065 59.7537 133.791 59.7324 134.449 59.6912L135.18 59.6463L150.996 100.391L151.212 100.919C151.71 102.069 152.21 102.782 152.667 103.166C153.347 103.651 153.839 103.829 154.167 103.852L155.096 103.919V107.199L154.029 107.128C152.778 107.044 151.286 107.002 149.552 107.002H149.527C147.829 106.959 146.109 106.937 144.368 106.937C142.413 106.937 140.565 106.959 138.824 107.002H138.8C137.062 107.002 135.706 107.044 134.723 107.126L133.64 107.217V103.888ZM134.047 87.6981H121.082L127.722 70.3983L134.047 87.6981ZM122.537 86.6981H132.617L127.699 73.2479L122.537 86.6981Z" fill="#FFFEFD"/>
<path d="M128.178 56.7832C129.758 54.5654 133.044 54.5409 134.658 56.7348L144.75 70.4593C146.685 73.0897 144.823 76.8045 141.558 76.8289L121.578 76.9781C118.313 77.0024 116.396 73.3159 118.291 70.6568L128.178 56.7832Z" fill="#2D2525"/>
<path d="M128.177 56.783C129.758 54.5653 133.044 54.5408 134.658 56.7346L144.75 70.4595C146.624 73.0077 144.935 76.5735 141.86 76.8162L141.557 76.8292L141.55 75.8292C143.998 75.8109 145.395 73.0243 143.945 71.0514L133.852 57.3276C132.642 55.6822 130.178 55.7006 128.992 57.3639L119.105 71.2369C117.684 73.2311 119.122 75.9964 121.571 75.9784L121.578 76.9784L121.276 76.9699C118.297 76.7796 116.569 73.4579 118.124 70.9093L118.291 70.657L128.177 56.783ZM141.55 75.8292L141.557 76.8292L121.578 76.9784L121.571 75.9784L141.55 75.8292Z" fill="#BFADA8"/>
<path d="M118.582 73V106H117.582V73H118.582ZM145.306 73L145.582 106H144.582V73H145.306Z" fill="#BFADA8"/>
<path d="M120.304 83.1297L125.067 99.6297H115.541L120.304 83.1297Z" fill="#2D2525"/>
<path d="M118.522 73H144.516L145.806 106H116.806L118.522 73Z" fill="#2D2525"/>
<path d="M143.804 98.1297H146.804V105.96L145.806 106H143.804V98.1297Z" fill="#2D2525"/>
<path d="M116.806 98H117.806V106H116.806V98Z" fill="#2D2525"/>
<path d="M144.304 83.1297L149.067 99.6297H139.541L144.304 83.1297Z" fill="#2D2525"/>
<path d="M126.499 78.1296V77.1296H144.499V78.1296H126.499Z" fill="#6FB39A"/>
<path d="M126.499 99.1296L126.499 98.1296L148.804 98.1297L148.804 99.1297L126.499 99.1296Z" fill="#6FB39A"/>
<path d="M133.499 82.1296C133.499 83.2341 132.604 84.1296 131.499 84.1296C130.395 84.1296 129.499 83.2341 129.499 82.1296C129.499 81.025 130.395 80.1296 131.499 80.1296C132.604 80.1296 133.499 81.025 133.499 82.1296Z" fill="#6FB39A"/>
<path d="M133.499 85.1296C133.499 84.025 132.604 83.1296 131.499 83.1296C130.395 83.1296 129.499 84.025 129.499 85.1296C129.499 86.2341 130.395 87.1296 131.499 87.1296V88.1296C129.842 88.1296 128.499 86.7864 128.499 85.1296C128.499 83.4727 129.842 82.1296 131.499 82.1296C133.156 82.1296 134.499 83.4727 134.499 85.1296C134.499 86.7864 133.156 88.1296 131.499 88.1296V87.1296C132.604 87.1296 133.499 86.2341 133.499 85.1296Z" fill="#6FB39A"/>
</svg>
